<?xml version="1.0" encoding="UTF-8"?>
<svg id="Layer_1" xmlns="http://www.w3.org/2000/svg" version="1.1" viewBox="130 250 340 100">
  <!-- Generator: Adobe Illustrator 29.5.1, SVG Export Plug-In . SVG Version: 2.1.0 Build 141)  -->
  <defs>
    <style>
      .st0 {
        fill: none;
      }

      .st1 {
        fill: #ffffff;
      }

      .st1, .st2 {
        fill-rule: evenodd;
      }

      .st2 {
        fill: #e2d4b8;
      }
    </style>
  </defs>
  <g id="Layer_x5F_1">
    <rect class="st0" width="600" height="600"/>
    <g id="_2296147919184">
      <path class="st2" d="M403.2,280.96l26.12,41.36,34-51.73c2.35-3.65,4.39-6.74,5.81-8.87.23-.34.23-.76.03-1.1-.17-.37-.54-.59-.93-.59h-13.06c-.37,0-.71.2-.91.54l-23.74,36.21-10.71-16.97c-.2-.31-.54-.51-.93-.51h-14.73c-.42,0-.76.2-.96.57s-.17.76.03,1.1h0Z"/>
      <path class="st1" d="M419.43,313.97l-16.15,24.39c-.23.34-.25.74-.06,1.1s.54.57.96.57h12.92c.4,0,.74-.17.93-.51l8.61-14.11-7.22-11.45ZM342.57,326.77l-15.44-46.72c-.14-.45-.57-.76-1.05-.76h-14.08c-.37,0-.68.17-.91.48-.2.28-.25.65-.11.99l21.56,58.56c.17.42.57.71,1.02.71h17.99c.48,0,.88-.28,1.02-.71l21.59-58.56c.11-.34.08-.71-.14-.99-.2-.31-.51-.48-.88-.48h-14.11c-.48,0-.88.31-1.05.76l-15.41,46.72ZM395.01,260.02h-11.76c-.42,0-.82.25-.99.68s-.08.88.23,1.19l11.76,11.73c.31.34.76.42,1.19.25.4-.17.65-.57.65-1.02v-11.73c0-.59-.48-1.1-1.08-1.1ZM290.13,279.29h13.26c.62,0,1.1.51,1.1,1.1v58.56c0,.59-.48,1.08-1.1,1.08h-13.26c-.59,0-1.1-.48-1.1-1.08v-9.12c-4.59,7.39-10.99,11.08-19.18,11.08s-15.02-2.95-20.46-8.81c-5.44-5.89-8.16-13.4-8.16-22.55s2.69-16.6,8.1-22.41,12.3-8.73,20.63-8.73,14.68,3.43,19.07,10.31v-8.33c0-.62.48-1.1,1.1-1.1ZM289.02,309.66c0,5.55-1.61,9.94-4.82,13.12-3.23,3.17-6.97,4.76-11.25,4.76s-8.02-1.61-11.25-4.82c-3.2-3.23-4.82-7.62-4.82-13.17s1.59-9.89,4.79-13.03c3.17-3.14,6.91-4.73,11.22-4.73s8.07,1.61,11.3,4.79c3.2,3.17,4.82,7.54,4.82,13.09ZM381.72,279.29h13.29c.59,0,1.08.51,1.08,1.1v58.56c0,.59-.48,1.08-1.08,1.08h-13.29c-.59,0-1.08-.48-1.08-1.08v-58.56c0-.62.48-1.1,1.08-1.1ZM217.62,260.02h13.26c.62,0,1.1.51,1.1,1.1v77.83c0,.59-.51,1.08-1.1,1.08h-13.26c-.62,0-1.1-.48-1.1-1.08v-77.83c0-.59.48-1.1,1.1-1.1ZM431.61,325.95l8.58,13.57c.23.34.54.51.93.51h14.73c.42,0,.76-.2.96-.57.2-.34.17-.76-.03-1.1l-16.35-25.84-8.84,13.43Z"/>
      <path class="st1" d="M146.48,300.03c0-7.37,2.38-14.59,7.54-20,5.01-5.24,11.81-7.88,19.04-7.88,8.27,0,15.89,3.46,20.91,10.06.37.48,1.02.62,1.56.34l11.73-5.95c.68-.37.91-1.25.42-1.87-8.1-11.05-21.02-16.63-34.62-16.63-11.36,0-22.38,3.88-30.54,11.93-8.1,7.99-11.98,18.73-11.98,30s3.88,22.04,11.98,30.03c8.16,8.05,19.18,11.93,30.54,11.93,13.6,0,26.52-5.58,34.62-16.63.48-.62.25-1.5-.42-1.87l-11.73-5.98c-.54-.28-1.19-.11-1.56.37-5.01,6.6-12.64,10.06-20.91,10.06-7.22,0-14.02-2.63-19.04-7.9-5.16-5.38-7.54-12.61-7.54-20Z"/>
    </g>
  </g>
</svg>